# AST/ASF file generated using VICON BodyLanguage
# -----------------------------------------------
:version 1.10
:name VICON
:units
  mass 1.0
  length 0.45
  angle deg
:documentation
   .ast/.asf automatically generated from VICON data using
   VICON BodyBuilder and BodyLanguage model FoxedUp or BRILLIANT.MOD
:root
   order TX TY TZ RX RY RZ
   axis XYZ
   position 0 0 0  
   orientation 0 0 0 
:bonedata
  begin
     id 1 
     name lhipjoint
     direction 0.543289 -0.788407 0.288535 
     length 2.57127 
     axis 0 0 0  XYZ
  end
  begin
     id 2 
     name lfemur
     direction 0.34202 -0.939693 0  
     length 8.47298  
     axis 0 0 20  XYZ
    dof rx ry rz
    limits (-160.0 20.0)
           (-70.0 70.0)
           (-60.0 70.0)
  end
  begin
     id 3 
     name ltibia
     direction 0.34202 -0.939693 0   
     length 8.13367   
     axis 0 0 20   XYZ
    dof rx
    limits (-10.0 170.0)
  end
  begin
     id 4 
     name lfoot
     direction 0.114037 -0.313314 0.942778   
     length 2.67113   
     axis -90 7.62852e-016 20   XYZ
    dof rx rz
    limits (-45.0 90.0)
           (-70.0 20.0)
  end
  begin
     id 5 
     name ltoes
     direction 1.536e-011 -4.21847e-011 1   
     length 1.32217   
     axis -90 7.62852e-016 20   XYZ
    dof rx
    limits (-90.0 20.0)
  end
  begin
     id 6 
     name rhipjoint
     direction -0.571293 -0.770752 0.282074   
     length 2.63017  
     axis 0 0 0  XYZ 
  end
  begin
     id 7 
     name rfemur
     direction -0.34202 -0.939693 0   
     length 8.60885   
     axis 0 0 -20   XYZ
    dof rx ry rz
    limits (-160.0 20.0)
           (-70.0 70.0)
           (-70.0 60.0)
  end
  begin
     id 8 
     name rtibia
     direction -0.34202 -0.939693 0   
     length 8.07673   
     axis 0 0 -20   XYZ
    dof rx
    limits (-10.0 170.0)
 end
 begin
     id 9 
     name rfoot
     direction -0.121336 -0.333368 0.934956   
     length 2.81602  
     axis -90 -7.62852e-016 -20   XYZ
    dof rx rz
    limits (-45.0 90.0)
           (-20.0 70.0)
  end
  begin
     id 10 
     name rtoes
     direction -1.53491e-011 -4.21808e-011 1   
     length 1.38905   
     axis -90 -7.62852e-016 -20   XYZ
    dof rx
    limits (-90.0 20.0)
  end
  begin
     id 11 
     name lowerback
     direction 0.0136776 0.999869 -0.00861835   
     length 2.14087   
     axis 0 0 0   XYZ
    dof rx ry rz
    limits (-20.0 45.0)
           (-30.0 30.0)
           (-30.0 30.0)
  end
  begin
     id 12 
     name upperback
     direction -0.00789158 0.999804 0.0181308   
     length 2.14151   
     axis 0 0 0   XYZ
    dof rx ry rz
    limits (-20.0 45.0)
           (-30.0 30.0)
           (-30.0 30.0)
  end
  begin
     id 13 
     name thorax
     direction -0.0135231 0.999666 0.0220247   
     length 2.13644   
     axis 0 0 0   XYZ
    dof rx ry rz
    limits (-20.0 45.0)
           (-30.0 30.0)
           (-30.0 30.0)
  end
  begin
     id 14 
     name lowerneck
     direction -0.0392259 0.997317 0.0618018   
     length 1.65045   
     axis 0 0 0   XYZ
    dof rx ry rz
    limits (-20.0 45.0)
           (-30.0 30.0)
           (-30.0 30.0)
  end
  begin
     id 15 
     name upperneck
     direction 0.0765547 0.994276 -0.0745319   
     length 1.66045   
     axis 0 0 0   XYZ
    dof rx ry rz
    limits (-20.0 45.0)
           (-30.0 30.0)
           (-30.0 30.0)
  end
  begin
     id 16
     name head
     direction 0.0241564 0.999031 -0.036785  
     length 1.66594  
     axis 0 0 0   XYZ
    dof rx ry rz
    limits (-20.0 45.0)
           (-30.0 30.0)
           (-30.0 30.0)
  end
  begin
     id 17 
     name lclavicle
     direction 0.967398 0.249018 0.0461573  
     length 3.75176  
     axis 0 0 0   XYZ
    dof ry rz
    limits (-20.0 10.0)
           (0.0 20.0)
  end
  begin
     id 18 
     name lhumerus
     direction 1 -4.48963e-011 -3.05005e-027   
     length 5.93342   
     axis 180 -30 -90   XYZ
    dof rx ry rz
    limits (-60.0 90.0)
           (-90.0 90.0)
           (-90.0 90.0)
  end
  begin
     id 19
     name lradius
     direction 1 -4.48957e-011 1.07006e-026   
     length 3.94763   
     axis 180 -30 -90   XYZ
    dof rx
    limits (-10.0 170.0)
  end
  begin
     id 20
     name lwrist
     direction 1 -4.48978e-011 1.92422e-026   
     length 1.97382   
     axis -1.18182e-014 90 90   XYZ
    dof ry
    limits (-180.0 0.0)
 end
  begin
     id 21 
     name lhand
     direction 1 -4.48931e-011 3.84844e-026   
     length 0.560187   
     axis -2.45563e-014 90 90   XYZ
    dof rx rz
    limits (-90.0 90.0)
           (-45.0 45.0)
  end
  begin
     id 22 
     name lfingers
     direction 1 -4.48952e-011 7.69687e-026   
     length 0.451637   
     axis -4.91126e-014 90 90   XYZ
    dof rx
    limits (0.0 90.0)
  end
  begin
     id 23
     name lthumb
     direction 0.707107 -6.34901e-011 0.707107   
     length 0.648463   
     axis -90 45 2.85299e-015   XYZ
    dof rx rz
    limits (-45.0 45.0)
           (-45.0 45.0)
  end
  begin
     id 24 
     name rclavicle
     direction -0.965946 0.258716 0.00371831   
     length 3.63667  
     axis 0 0 0   XYZ 
    dof ry rz
    limits (-10.0 20.0)
           (-20.0 0.0)
  end
  begin
     id 25 
     name rhumerus
     direction -1 -4.48966e-011 -1.78361e-028  
     length 6.28647   
     axis 180 30 90   XYZ
    dof rx ry rz
    limits (-90.0 60.0)
           (-90.0 90.0)
           (-90.0 90.0)
  end
  begin
     id 26 
     name rradius
     direction -1 -4.48961e-011 1.05248e-026   
     length 3.81645   
     axis 180 30 90   XYZ
    dof rx
    limits (-10.0 170.0)
  end
  begin
     id 27 
     name rwrist
     direction -1 -4.48979e-011 1.92422e-026   
     length 1.90822   
     axis -1.18182e-014 -90 -90   XYZ
    dof ry
    limits (-180.0 0.0)
  end
  begin
     id 28
     name rhand
     direction -1 -4.48937e-011 3.84844e-026   
     length 0.646185   
     axis -2.45563e-014 -90 -90   XYZ
    dof rx rz
    limits (-90.0 90.0)
           (-45.0 45.0)
  end
  begin
     id 29
     name rfingers
     direction -1 -4.48953e-011 7.69687e-026   
     length 0.520971   
     axis -4.91126e-014 -90 -90   XYZ
    dof rx
    limits (0.0 90.0)
  end
  begin
     id 30
     name rthumb
     direction -0.707107 -6.3494e-011 0.707107   
     length 0.748013   
     axis -90 -45 -2.85299e-015   XYZ
    dof rx rz
    limits (-45.0 45.0)
           (-45.0 45.0)
  end
:hierarchy
  begin
    root lhipjoint rhipjoint lowerback
    lhipjoint lfemur
    lfemur ltibia
    ltibia lfoot
    lfoot ltoes
    rhipjoint rfemur
    rfemur rtibia
    rtibia rfoot
    rfoot rtoes
    lowerback upperback
    upperback thorax
    thorax lowerneck lclavicle rclavicle
    lowerneck upperneck
    upperneck head
    lclavicle lhumerus
    lhumerus lradius
    lradius lwrist
    lwrist lhand lthumb
    lhand lfingers
    rclavicle rhumerus
    rhumerus rradius
    rradius rwrist
    rwrist rhand rthumb
    rhand rfingers
  end

#!OML:ASF H:\HAZMAT1\Patient Classification 1\Patient 3\Session 1\dancer.ASF
:FULLY-SPECIFIED
:DEGREES
120
upperback 0.497361 -6.618360 -0.271863
rfoot -21.716900 -16.632200
lradius 13.663300
lthumb 0.301266 50.978500
rradius 16.794100
lwrist -48.708698
rhand -21.974899 -27.425100
rhumerus -56.549599 0.706770 -39.943401
lowerneck -6.906520 3.404760 4.358720
lhand -26.253099 20.999001
ltibia 64.244400
head 6.460210 1.847670 -1.378850
rwrist 35.975800
lfingers 7.125020
rtoes 6.442860
lowerback -0.331387 -4.922380 8.097620
rfingers 7.125020
lclavicle -0.000000 0.000000
upperneck 17.015100 4.115070 -2.985720
rfemur -41.848801 -0.604200 17.561300
thorax -0.242877 -3.306140 -4.739810
rclavicle -0.000000 0.000000
rtibia 56.977501
lfoot -18.131001 9.341400
lhumerus -22.978701 0.905472 46.684799
rthumb 4.433020 -57.358700
root -18.372900 18.170601 0.681596 -172.378006 -42.865799 899.830017
ltoes 0.203213
lfemur -41.049198 -5.106990 -3.445820
121
upperback -0.406221 1.512930 -3.509180
rfoot -21.205000 -17.491699
lradius 16.162701
lthumb 5.456570 41.336601
rradius 21.623100
lwrist -37.219200
rhand -25.582701 -21.183701
rhumerus -34.949299 8.876550 -57.785099
lowerneck -6.948290 0.276595 0.366839
lhand -20.914801 11.426800
ltibia 32.628601
head 7.972430 -0.729966 1.533260
rwrist 30.540001
lfingers 7.125020
rtoes -7.762280
lowerback -0.805102 1.183530 6.516190
rfingers 7.125020
lclavicle 0.000000 0.000000
upperneck 21.973900 -1.858450 5.475710
rfemur -30.474800 6.646700 5.406280
thorax 0.297749 0.747262 -7.315400
rclavicle 0.000000 0.000000
rtibia 46.326000
lfoot -14.332100 2.651420
lhumerus -48.881802 -4.061280 52.487000
rthumb 0.948783 -51.161301
root -22.514200 18.627001 0.747903 -170.735992 -34.331902 899.560974
ltoes -16.726299
lfemur -29.774300 -32.938202 13.424000
122
upperback -0.941019 2.392740 -4.025350
rfoot -17.196899 -27.887800
lradius 16.698400
lthumb 5.251270 39.757900
rradius 23.986500
lwrist -34.008598
rhand -32.790298 -14.376400
rhumerus -23.093901 17.817801 -77.283501
lowerneck -8.652480 -1.661380 -0.286710
lhand -21.127501 9.842940
ltibia 32.177700
head 8.518650 -1.975910 1.530910
rwrist 26.530199
lfingers 7.125020
rtoes 8.541430
lowerback -0.208078 1.861100 2.475440
rfingers 7.125020
lclavicle 0.000000 0.000000
upperneck 22.341700 -4.591370 5.931580
rfemur -43.079300 -5.117510 10.105600
thorax -0.575626 1.138490 -5.552620
rclavicle 0.000000 0.000000
rtibia 50.527802
lfoot -20.960100 5.103710
lhumerus -54.020000 -0.018688 62.967800
rthumb -6.011710 -44.271099
root -25.789101 19.257000 1.943260 -165.472000 -32.188301 897.734009
ltoes -1.412310
lfemur -30.490900 -32.483299 0.210973
123
upperback -0.700877 3.202700 -5.327340
rfoot -24.490801 -20.065100
lradius 20.810900
lthumb 1.148970 39.630299
rradius 26.187599
lwrist -27.966999
rhand -24.236099 -12.158300
rhumerus -26.404100 23.372101 -100.816002
lowerneck -6.660280 -4.183970 -3.459640
lhand -25.375401 9.653600
ltibia 38.928501
head 8.578370 -3.896990 2.589420
rwrist 22.458900
lfingers 7.125020
rtoes -3.021750
lowerback -0.093360 2.529740 0.812754
rfingers 7.125020
lclavicle 0.000000 0.000000
upperneck 22.460699 -8.419940 8.547390
rfemur -47.404598 -7.327640 32.126301
thorax -0.316435 1.526130 -5.966480
rclavicle 0.000000 0.000000
rtibia 44.027802
lfoot -21.769899 0.917466
lhumerus -50.351200 -3.124600 69.384399
rthumb 2.249390 -42.126202
root -27.741501 19.243700 2.504340 -165.123001 -32.681099 896.010010
ltoes 3.322080
lfemur -31.272600 -29.952700 -10.473000
124
upperback -1.067340 2.871210 -5.746120
rfoot -26.225401 -26.518999
lradius 23.359900
lthumb -0.507547 40.755600
rradius 33.882301
lwrist -24.511200
rhand -14.171400 -15.483000
rhumerus -38.281300 28.285101 -113.583000
lowerneck -5.149170 -8.306880 -7.805870
lhand -27.090599 10.776500
ltibia 40.746300
head 8.899380 -6.706580 2.526480
rwrist 7.961060
lfingers 7.125020
rtoes 17.825701
lowerback -1.694470 2.297930 -2.707640
rfingers 7.125020
lclavicle 0.000000 0.000000
upperneck 22.430799 -13.494600 7.753440
rfemur -40.581699 0.058140 29.236900
thorax 0.010807 1.331560 -4.356570
rclavicle 0.000000 0.000000
rtibia 41.574001
lfoot -20.677500 -12.694900
lhumerus -53.480900 -3.071820 74.205902
rthumb 11.963900 -45.121101
root -28.951900 19.129400 2.726120 -161.645004 -37.137699 889.882019
ltoes 12.571100
lfemur -30.316500 -22.986799 -21.806700
125
upperback -1.041560 2.718840 -5.249970
rfoot -28.071400 -31.057699
lradius 20.924601
lthumb 4.557830 36.957401
rradius 34.441700
lwrist -26.408501
rhand -8.760430 -9.731830
rhumerus -41.721802 35.422699 -115.608002
lowerneck -5.552390 -9.554540 -8.213170
lhand -21.845600 7.026450
ltibia 41.441898
head 8.452310 -7.256980 2.394070
rwrist 9.486340
lfingers 7.125020
rtoes 26.808001
lowerback -1.880440 2.149110 -2.286310
rfingers 7.125020
lclavicle 0.000000 -0.000000
upperneck 20.522900 -14.713100 7.582230
rfemur -39.284801 7.458630 24.924900
thorax 0.130291 1.272540 -4.070230
rclavicle 0.000000 -0.000000
rtibia 40.384899
lfoot -20.664200 -17.802200
lhumerus -55.042900 -1.752870 78.143600
rthumb 17.177000 -38.992599
root -29.674999 19.107100 2.763310 -161.110992 -37.017799 890.664001
ltoes 17.523399
lfemur -30.190800 -19.012899 -23.901600
126
upperback 0.059878 3.458610 -5.292610
rfoot -16.069201 -12.911300
lradius 19.572201
lthumb 15.218400 32.978500
rradius 35.473000
lwrist -29.785801
rhand -14.124000 -2.617490
rhumerus -38.956001 57.966301 -108.679001
lowerneck -3.465620 -9.522850 -6.450800
lhand -10.794600 3.558270
ltibia 45.985298
head 7.781110 -7.509700 3.082200
rwrist 22.359900
lfingers 7.125020
rtoes 4.174050
lowerback -1.292820 2.676600 1.190950
rfingers 7.125020
lclavicle -0.000000 0.000000
upperneck 19.112200 -15.605000 10.450100
rfemur -39.520901 -10.576400 37.065201
thorax 1.189210 1.697490 -6.063020
rclavicle -0.000000 0.000000
rtibia 48.854698
lfoot -22.932301 -1.645990
lhumerus -53.308300 -15.691800 67.904900
rthumb 12.009500 -32.252899
root -29.994801 19.116600 2.523420 -169.675003 -34.827900 899.041992
ltoes 7.859500
lfemur -26.412001 -30.753700 -18.449600
127
upperback 2.512640 3.569130 -4.507490
rfoot 3.252550 -7.599540
lradius 19.189699
lthumb 14.232400 34.909801
rradius 39.373901
lwrist -30.257200
rhand -13.656300 -0.603412
rhumerus 10.763200 60.693501 -41.305302
lowerneck -4.409330 -7.988860 -4.715640
lhand -11.818000 5.417450
ltibia 63.401199
head 9.839740 -7.365810 3.131250
rwrist 27.268101
lfingers 7.125020
rtoes -3.556270
lowerback -4.012140 2.673430 1.164900
rfingers 7.125020
lclavicle -0.000000 0.000000
upperneck 24.605400 -15.625900 11.798400
rfemur -38.818401 -19.442900 40.979599
thorax 5.230860 1.840840 -5.054350
rclavicle -0.000000 0.000000
rtibia 63.085201
lfoot -11.859500 -7.076120
lhumerus -50.033401 -23.897600 44.156700
rthumb 12.460500 -30.212000
root -30.254000 18.917601 1.982060 -183.136993 -32.342602 906.322998
ltoes -7.646970
lfemur -23.357599 -22.197800 -17.482700
128
upperback 1.731490 2.193360 -5.273840
rfoot -4.347660 -4.089200
lradius 16.836399
lthumb 13.197300 35.997700
rradius 42.218102
lwrist -33.855400
rhand -14.611800 1.186270
rhumerus 26.981600 34.625000 -14.176700
lowerneck -3.933520 -7.804800 -5.451630
lhand -12.892000 6.435430
ltibia 55.139900
head 8.366740 -7.035350 4.746240
rwrist 26.152800
lfingers 7.125020
rtoes -8.264380
lowerback -2.145970 1.676450 -0.285931
rfingers 7.125020
lclavicle 0.000000 -0.000000
upperneck 19.567400 -15.171900 15.974800
rfemur -40.281601 -17.332500 42.118401
thorax 3.191410 1.066980 -5.203420
rclavicle 0.000000 -0.000000
rtibia 62.451900
lfoot -22.897600 -11.690700
lhumerus -50.895802 -13.040600 33.305401
rthumb 11.539200 -28.476101
root -30.289200 18.756399 1.843810 -179.524994 -31.988001 906.250977
ltoes 2.687620
lfemur -21.419201 -22.612499 -14.838200
129
upperback 0.336934 -0.654356 -6.968660
rfoot -11.031200 -14.203600
lradius 13.600900
lthumb 9.190730 44.509399
rradius 40.795799
lwrist -41.903400
rhand -15.571500 -0.124498
rhumerus 29.684401 -1.914390 -7.035110
lowerneck -5.140310 -8.298990 -4.004730
lhand -17.046200 14.729700
ltibia 42.213699
head 5.009700 -6.315590 5.404020
rwrist 26.047600
lfingers 7.125020
rtoes 3.793860
lowerback 1.030130 -0.236490 0.525902
rfingers 7.125020
lclavicle -0.000000 0.000000
upperneck 8.601190 -13.612500 18.367201
rfemur -49.657799 -5.057820 43.344799
thorax -0.318573 -0.464303 -7.553180
rclavicle -0.000000 0.000000
rtibia 44.700199
lfoot -30.239500 -3.306150
lhumerus -57.110100 -1.263770 36.926201
rthumb 10.613500 -29.836500
root -29.801300 19.257099 2.100800 -159.858002 -35.923599 903.005981
ltoes -0.122607
lfemur -39.803200 -33.466801 -2.539500
